<?xml version="1.0" encoding="UTF-8" ?>
<!DOCTYPE svg PUBLIC "-//W3C//DTD SVG 1.1//EN" "http://www.w3.org/Graphics/SVG/1.1/DTD/svg11.dtd">
<svg width="225pt" height="225pt" viewBox="0 0 225 225" version="1.1" xmlns="http://www.w3.org/2000/svg">
<g id="#ffffffff">
</g>
<g id="#000000ff">
<path fill="#000000" opacity="1.00" d=" M 46.37 76.29 C 56.08 68.94 68.95 65.51 80.98 67.97 C 93.38 70.27 104.59 78.33 110.77 89.32 C 117.25 101.53 123.65 113.78 130.19 125.96 C 134.80 134.78 145.11 140.49 155.06 138.93 C 168.01 137.41 178.67 125.12 178.02 112.04 C 178.25 98.56 166.42 86.21 152.94 85.88 C 142.17 85.06 132.41 92.72 128.40 102.36 C 125.15 96.09 121.92 89.79 118.31 83.72 C 125.62 74.29 136.99 68.18 148.89 67.29 C 160.89 66.41 173.11 70.88 181.98 78.97 C 190.35 86.43 195.62 97.19 196.61 108.34 C 197.99 122.23 192.43 136.64 182.00 145.94 C 174.59 152.78 164.84 157.06 154.76 157.64 C 138.51 159.02 122.14 149.86 114.26 135.69 C 107.72 123.50 101.37 111.21 94.82 99.02 C 90.39 90.53 80.66 84.95 71.06 85.93 C 58.29 86.78 47.19 98.18 46.76 110.99 C 45.62 124.48 56.52 137.54 69.93 138.98 C 81.14 140.70 92.63 133.22 96.32 122.63 C 100.08 128.72 102.94 135.33 106.72 141.41 C 99.09 151.01 87.35 157.26 75.05 157.82 C 63.15 158.26 51.16 153.64 42.50 145.46 C 32.54 136.17 27.19 122.17 28.49 108.61 C 29.44 95.94 36.20 83.89 46.37 76.29 Z" />
</g>
</svg>
