<?xml version="1.0" encoding="UTF-8" ?>
<!DOCTYPE svg PUBLIC "-//W3C//DTD SVG 1.1//EN" "http://www.w3.org/Graphics/SVG/1.1/DTD/svg11.dtd">
<svg width="225pt" height="225pt" viewBox="0 0 225 225" version="1.1" xmlns="http://www.w3.org/2000/svg">
<g id="#ffffffff">
</g>
<g id="#000000ff">
<path fill="#000000" opacity="1.00" d=" M 89.62 0.00 L 135.93 0.00 C 142.84 0.59 147.00 9.23 142.82 14.86 C 139.41 20.21 132.42 18.91 127.05 19.01 C 127.04 24.86 127.04 30.72 127.04 36.57 C 147.81 39.70 167.37 50.03 181.64 65.45 C 197.70 82.46 207.09 105.63 207.19 129.04 C 207.64 149.09 201.15 169.15 189.42 185.38 C 176.61 203.35 157.29 216.56 135.90 221.99 C 128.51 223.98 120.86 224.53 113.26 225.00 L 108.88 225.00 C 101.47 224.19 93.95 223.65 86.79 221.42 C 66.31 215.61 47.87 202.78 35.53 185.42 C 23.99 169.42 17.56 149.71 17.79 129.96 C 17.56 105.98 27.31 82.18 43.87 64.90 C 58.10 49.81 77.46 39.70 97.95 36.57 C 97.96 30.72 97.95 24.87 97.96 19.02 C 92.58 18.88 85.60 20.20 82.18 14.87 C 77.78 9.08 82.41 0.07 89.62 0.00 M 106.40 54.51 C 88.04 55.96 70.36 64.36 57.69 77.73 C 45.91 89.90 38.37 106.13 36.88 123.02 C 34.93 143.17 41.49 163.99 54.72 179.33 C 67.42 194.45 86.25 204.15 105.91 205.84 C 115.12 206.35 124.49 205.85 133.36 203.13 C 153.46 197.48 170.89 183.03 180.22 164.35 C 188.03 149.29 190.26 131.53 186.81 114.95 C 182.88 94.92 170.25 76.88 153.01 66.02 C 139.28 57.27 122.63 53.20 106.40 54.51 Z" />
<path fill="#000000" opacity="1.00" d=" M 102.99 81.89 C 102.86 77.59 105.89 73.40 110.11 72.39 C 115.60 70.62 121.64 75.28 121.93 80.93 C 122.09 96.05 121.96 111.19 122.00 126.31 C 129.62 133.89 137.20 141.51 144.83 149.08 C 148.40 152.59 148.20 159.15 144.37 162.40 C 141.01 165.82 134.91 165.90 131.55 162.41 C 122.84 153.84 114.26 145.14 105.55 136.56 C 104.03 135.17 102.82 133.22 102.99 131.07 C 103.00 114.68 103.01 98.28 102.99 81.89 Z" />
</g>
</svg>
