<svg width="240px" height="240px" viewBox="0 0 240 240" version="1.1" xmlns="http://www.w3.org/2000/svg">
<path fill="currentColor" opacity="1.00" d=" M 110.50 12.80 C 125.87 10.23 142.19 14.07 154.83 23.17 C 164.42 30.03 171.94 39.75 176.08 50.79 C 181.37 64.54 181.25 80.28 175.79 93.95 C 170.63 107.17 160.59 118.41 148.03 125.02 C 137.09 130.85 124.27 133.14 112.00 131.42 C 95.76 129.35 80.65 120.12 71.18 106.80 C 60.74 92.37 57.34 73.16 62.19 56.02 C 68.06 33.83 87.80 16.18 110.50 12.80 Z" />
<path fill="currentColor" opacity="1.00" d=" M 46.31 169.28 C 72.25 153.16 103.80 148.21 133.89 150.57 C 160.01 152.64 186.35 161.27 206.37 178.63 C 215.06 186.29 222.73 195.65 226.41 206.77 C 228.79 213.60 227.79 220.92 228.00 228.00 C 156.00 228.00 84.00 228.00 12.00 228.00 C 12.18 220.38 11.13 212.46 14.11 205.21 C 20.02 189.80 32.62 177.96 46.31 169.28 Z" />
</svg>
