<svg xmlns="http://www.w3.org/2000/svg" viewBox="0 0 300 300" fill="#0f0">
  <path d="M127.44,161.51c-15.53,2.27-27.33,19.15-23.45,34.51,2.64,13.81,16.91,24.32,30.87,22.85,14.68-.95,27.23-15.13,26.07-29.82C161.32,172.35,143.8,158.17,127.44,161.51Z"/>
  <path d="M277.16,47.12c-2.92,2.75-7.64,1-11.1,1.89-21.98.31-43.96-.19-65.94.03-13.3,22.71-27.03,45.16-40.49,67.78-23.54.05-47.07.28-70.58,1.32-11.14,19.22-22.01,38.6-33.14,57.83-18.64.01-37.27.09-55.91.03v25c17.9-.09,35.81.01,53.71.15,8.15,13.46,16.99,26.48,25.53,39.69,1.46,2.63,3.86,5.45,3.14,8.69-1.05,3.81-3.36,7.11-5.19,10.58C69.43,273.22,62.44,286.76,54.92,300h25.6c8.32-12.16,15.29-25.21,22.9-37.83,23.37-.19,46.74-.15,70.1-.35q18.54-32.52,37.79-64.63c1.71-3.06,4.32-6.95,1.99-10.41-10.15-17.42-21.37-34.21-31.54-51.61-2.15-2.98-.82-6.63.85-9.46,9.43-16.6,19.6-32.77,28.69-49.57,26.76-.28,53.52.04,80.28-.35,2.81-3.82,5.8-7.52,8.42-11.48V23.43C292.35,31.3,285.24,39.7,277.16,47.12ZM175.86,218.89c-9.23,14.76-26.41,24-43.86,23.13-26.79,1.45-51.51-22.36-51.87-49.05-2.79-25.39,17.38-50.41,42.31-54.39,15.29-2.4,32.01.56,43.59,11.39C186.17,165.98,191.01,197.93,175.86,218.89Z"/>
</svg>