<?xml version="1.0" standalone="no"?>
<!DOCTYPE svg PUBLIC "-//W3C//DTD SVG 20010904//EN"
 "http://www.w3.org/TR/2001/REC-SVG-20010904/DTD/svg10.dtd">
<svg version="1.0" xmlns="http://www.w3.org/2000/svg"
 width="2350.000000pt" height="1370.000000pt" viewBox="0 0 2350.000000 1370.000000"
 preserveAspectRatio="xMidYMid meet">

<g transform="translate(0.000000,1370.000000) scale(0.100000,-0.100000)"
fill="#FFF" stroke="none">
<path d="M9649 13667 c-16 -21 -19 -21 -50 -7 -39 17 -255 20 -404 6 -71 -7
-95 -13 -115 -31 -14 -12 -50 -36 -80 -54 -30 -18 -64 -41 -75 -51 -11 -9 -33
-21 -50 -24 -16 -4 -49 -18 -72 -32 -40 -23 -42 -27 -45 -77 l-3 -52 -60 -21
c-48 -17 -61 -27 -69 -50 -5 -16 -22 -44 -37 -63 -26 -32 -27 -36 -14 -62 19
-36 12 -51 -36 -85 -28 -19 -42 -38 -50 -67 -7 -27 -27 -56 -60 -88 -58 -56
-60 -74 -19 -144 28 -47 30 -56 29 -150 -1 -55 -4 -142 -7 -193 -7 -92 -7 -92
-48 -130 -62 -56 -77 -93 -82 -197 -8 -185 82 -386 201 -446 33 -17 51 -20
101 -14 l62 6 34 -42 c64 -81 101 -251 117 -539 5 -102 3 -121 -14 -160 -44
-101 -180 -229 -333 -315 -81 -46 -292 -140 -385 -172 -95 -32 -387 -91 -510
-103 -94 -10 -107 -14 -234 -76 -119 -59 -143 -75 -216 -148 -134 -132 -177
-241 -229 -577 -64 -413 -90 -809 -90 -1374 0 -659 37 -1066 129 -1421 19 -72
41 -189 49 -260 24 -204 50 -312 110 -452 30 -70 69 -163 86 -207 53 -134 107
-226 177 -305 91 -102 140 -181 152 -243 34 -182 41 -228 41 -258 0 -41 -78
-437 -91 -461 -8 -14 -23 -18 -65 -18 -36 0 -75 -9 -114 -25 -99 -42 -108 -39
-386 99 -312 155 -415 194 -549 209 -55 5 -221 11 -370 11 -230 1 -282 -2
-350 -18 -202 -47 -341 -149 -452 -333 -85 -142 -88 -210 -17 -415 72 -205
122 -293 239 -419 41 -44 81 -93 90 -108 23 -46 7 -52 -126 -41 -63 5 -208 10
-324 12 l-210 2 -195 -78 -195 -78 -70 7 c-38 4 -89 9 -112 11 -23 1 -55 10
-72 18 -35 19 -81 20 -186 5 -63 -8 -92 -7 -155 5 l-77 16 -59 -30 c-32 -16
-64 -30 -71 -30 -25 0 -93 -76 -93 -103 0 -32 -4 -33 -41 -6 -16 11 -44 25
-62 30 -82 24 -277 51 -427 59 -91 5 -255 16 -365 25 -241 20 -279 17 -356
-29 -32 -19 -87 -43 -121 -52 -35 -10 -86 -28 -115 -41 -28 -13 -55 -23 -60
-23 -32 0 -89 -27 -129 -60 -28 -23 -66 -43 -95 -50 -60 -15 -99 -56 -128
-137 -49 -136 -50 -136 -246 -128 -487 20 -696 11 -820 -36 -32 -12 -76 -19
-119 -19 -58 0 -78 -5 -120 -28 -28 -16 -81 -39 -118 -51 -37 -12 -80 -32 -96
-44 -17 -12 -51 -37 -76 -56 l-46 -35 0 -1273 0 -1273 11744 0 c6460 0 11747
4 11750 8 16 26 -89 96 -191 127 -47 15 -109 39 -137 55 -28 15 -73 31 -101
35 -27 3 -94 27 -148 52 -85 39 -109 46 -197 54 -56 4 -105 11 -111 15 -6 3
-54 6 -107 5 -54 0 -138 6 -187 14 -50 8 -133 19 -185 25 -154 16 -169 20
-216 56 -34 26 -66 39 -140 55 -92 20 -98 21 -190 5 -179 -30 -240 -23 -439
54 -84 32 -131 44 -200 50 -101 9 -300 52 -342 74 -16 8 -57 20 -91 26 -35 7
-78 23 -96 35 -50 34 -104 48 -181 49 -106 0 -394 -22 -445 -35 -25 -6 -83
-12 -130 -12 -105 -2 -144 16 -214 98 -65 75 -90 85 -225 85 -73 0 -137 6
-193 19 -46 11 -144 25 -219 31 -140 10 -214 27 -284 63 -80 40 -153 97 -190
147 -47 63 -72 76 -173 89 -46 6 -111 23 -149 39 -84 35 -136 49 -236 62 -83
11 -110 23 -136 64 -9 14 -59 69 -111 123 -60 62 -106 120 -125 157 -44 88
-55 93 -228 107 -130 11 -155 11 -215 -4 -37 -9 -90 -19 -119 -22 -47 -5 -55
-3 -85 23 -18 16 -51 35 -73 42 -22 7 -66 26 -97 43 -47 24 -74 31 -160 37
-75 5 -115 13 -145 29 -50 25 -93 27 -156 5 -52 -18 -92 -15 -179 12 -52 16
-69 16 -170 5 -97 -11 -127 -11 -218 3 -142 22 -377 84 -605 161 -104 34 -225
68 -268 74 -44 6 -126 29 -185 52 -209 80 -309 110 -447 135 -205 36 -276 52
-415 90 -69 18 -163 41 -210 50 -47 8 -119 24 -160 34 -41 11 -110 23 -154 29
-156 19 -133 64 64 129 69 22 179 64 245 92 87 38 157 60 257 80 186 38 225
58 344 173 55 52 116 109 137 127 53 46 183 203 208 251 11 22 27 75 35 116 8
42 21 103 30 137 18 71 13 142 -18 224 -49 130 -201 303 -320 363 -125 63
-488 141 -740 159 -76 6 -181 17 -234 25 -79 13 -123 14 -262 5 -418 -26 -699
-83 -1290 -265 -118 -36 -224 -65 -236 -65 -30 0 -66 35 -66 65 0 13 18 59 40
102 33 64 47 108 75 253 19 96 50 229 69 295 19 66 37 154 40 196 4 42 22 148
41 235 62 287 78 435 71 629 -3 94 -12 238 -20 320 -16 162 -30 516 -46 1125
-5 212 -16 462 -25 555 -26 305 -36 543 -41 990 -4 337 -9 451 -20 485 -7 25
-27 106 -44 180 -34 149 -62 212 -149 334 -94 131 -221 238 -343 287 -47 20
-80 23 -298 30 -216 6 -257 10 -344 33 -109 28 -311 120 -351 160 -34 34 -33
74 10 300 58 309 49 282 125 361 122 128 199 257 220 365 6 30 15 59 20 64 5
5 29 11 52 12 24 1 47 2 51 3 12 2 66 121 73 161 3 19 17 83 30 142 21 92 24
132 24 300 0 106 -5 220 -10 253 -6 33 -15 146 -20 250 -5 105 -12 204 -16
221 -3 18 -23 52 -43 77 -21 25 -48 73 -60 107 -13 36 -50 97 -88 147 -36 47
-76 109 -88 138 -35 79 -211 229 -283 240 -113 19 -146 29 -192 61 -27 19 -53
34 -57 34 -5 -1 -15 -11 -24 -23z m-1960 -6300 c6 -8 17 -47 26 -88 8 -41 26
-108 40 -149 33 -102 61 -219 75 -315 10 -63 19 -88 43 -119 23 -29 40 -77 73
-196 72 -269 76 -339 25 -496 -63 -189 -92 -197 -135 -34 -14 53 -44 145 -67
205 -52 140 -75 228 -94 368 -31 234 -55 779 -36 815 13 25 33 28 50 9z m3114
-579 c14 -12 17 -47 19 -303 3 -276 -8 -754 -18 -802 -6 -32 -39 -29 -53 5
-12 31 -59 236 -91 397 -12 61 -21 148 -21 195 -1 95 18 341 27 365 4 9 22 22
40 30 30 12 34 18 34 51 0 21 7 46 17 56 19 21 24 22 46 6z"/>
</g>
</svg>
